# Blender v2.79 (sub 0) OBJ File: 'throne.blend'
# www.blender.org
o Plane
v -0.500000 -0.500000 0.500000
v 0.500000 -0.500000 0.500000
v -0.500000 -0.500000 -0.500000
v 0.500000 -0.500000 -0.500000
v -0.500000 -0.500000 0.337500
v 0.500000 -0.500000 0.337500
v 0.500000 -0.500000 -0.350383
v -0.500000 -0.500000 -0.350383
v -0.500000 0.000000 0.337500
v -0.500000 0.000000 0.500000
v 0.500000 0.000000 0.500000
v 0.500000 0.000000 -0.350383
v 0.500000 0.000000 -0.500000
v -0.500000 0.000000 -0.500000
v -0.500000 0.000000 -0.350383
v 0.500000 0.000000 0.337500
v -0.317955 -0.500000 0.500000
v -0.317955 -0.500000 -0.500000
v -0.317955 -0.500000 0.337500
v -0.317955 -0.500000 -0.350383
v -0.317955 0.000000 0.500000
v -0.317955 0.000000 -0.500000
v -0.317955 0.000000 0.337500
v -0.317955 0.000000 -0.350383
v -0.317955 0.250000 0.500000
v 0.441392 0.250000 0.500000
v 0.441392 0.250000 -0.350383
v 0.441392 0.250000 -0.500000
v 0.441392 0.250000 0.337500
v -0.317955 0.250000 -0.500000
v -0.317955 0.250000 0.337500
v -0.317955 0.250000 -0.350383
v -0.534164 0.490586 0.337500
v -0.534164 0.490586 0.500000
v -0.352120 0.490586 -0.500000
v -0.534164 0.490586 -0.500000
v -0.534164 0.490586 -0.350383
v -0.352120 0.490586 0.337500
v -0.352120 0.490586 -0.350383
v -0.352120 0.490586 0.500000
v -0.561983 1.478427 0.337500
v -0.561983 1.478427 0.500000
v -0.379938 1.478427 -0.500000
v -0.561983 1.478427 -0.500000
v -0.561983 1.478427 -0.350383
v -0.379938 1.478427 0.337500
v -0.379938 1.478427 -0.350383
v -0.379938 1.478427 0.500000
v -0.500000 -0.442686 -0.500000
v 0.500000 -0.442686 -0.500000
v 0.500000 -0.442686 0.500000
v -0.500000 -0.442686 0.500000
v -0.500000 -0.442686 -0.350383
v -0.500000 -0.442686 0.337500
v 0.500000 -0.442686 -0.350383
v 0.500000 -0.442686 0.337500
v -0.317955 -0.442686 0.500000
v -0.317955 -0.442686 -0.500000
v -0.333091 -0.501193 0.520888
v 0.518926 -0.501193 0.520888
v 0.518926 -0.501193 -0.364906
v 0.518926 -0.501193 -0.520754
v -0.333091 -0.501193 -0.520754
v -0.522716 -0.501193 -0.520754
v 0.518926 -0.501193 0.351621
v 0.518926 -0.441493 -0.520754
v -0.522716 -0.441493 0.520888
v -0.522716 -0.501193 0.520888
v 0.518926 -0.441493 -0.364906
v 0.518926 -0.441493 0.351621
v -0.522716 -0.441493 -0.520754
v 0.518926 -0.441493 0.520888
v -0.333091 -0.441493 0.520888
v -0.333091 -0.441493 -0.520754
v -0.378938 1.442890 -0.350383
v -0.378938 1.442890 -0.500000
v -0.378938 1.442890 0.337500
v -0.560982 1.442890 -0.500000
v -0.378938 1.442890 0.500000
v -0.560982 1.442890 0.500000
v -0.560982 1.442890 -0.350383
v -0.560982 1.442890 0.337500
v -0.357914 1.443482 -0.500000
v -0.358915 1.479019 -0.500000
v -0.358915 1.479019 0.337500
v -0.358915 1.479019 -0.350383
v -0.358915 1.479019 0.500000
v -0.357914 1.443482 -0.350383
v -0.357914 1.443482 0.337500
v -0.357914 1.443482 0.500000
v 0.428550 0.000000 0.277412
v 0.428550 0.000000 -0.290295
v -0.246505 0.000000 0.277412
v -0.246505 0.000000 -0.290295
v 0.414498 0.019081 0.265595
v 0.414498 0.019081 -0.278477
v -0.232453 0.019081 0.265595
v -0.232453 0.019081 -0.278477
v -0.322776 0.097967 0.285218
v -0.322776 0.097967 -0.298101
v -0.374489 1.321528 -0.298101
v -0.351748 0.513980 -0.298101
v -0.351748 0.513980 0.285218
v -0.374489 1.321528 0.285218
v -0.310113 0.135411 0.266164
v -0.310113 0.135411 -0.279046
v -0.358447 1.279034 -0.279046
v -0.337192 0.524245 -0.279046
v -0.337192 0.524245 0.266164
v -0.358447 1.279034 0.266164
vt 0.096348 0.003281
vt 0.493439 0.151371
vt 0.096348 0.151371
vt 0.096348 0.832229
vt 0.493439 0.993070
vt 0.096348 0.993070
vt 0.493439 0.832229
vt 0.003419 0.364841
vt 0.498762 0.004165
vt 0.498762 0.364841
vt 0.499534 0.990968
vt 0.011856 0.083589
vt 0.499533 0.013556
vt 0.007673 0.993431
vt 0.050413 0.090837
vt 0.050413 0.907042
vt 0.482435 0.006968
vt 0.004565 0.231548
vt 0.043627 0.003528
vt 0.002245 0.989726
vt 0.492967 0.366026
vt 0.492611 0.998855
vt 0.420562 0.995077
vt 0.492970 0.767869
vt 0.492970 0.995077
vt 0.087659 0.995077
vt 0.420562 0.767869
vt 0.003419 0.995810
vt 0.498762 0.995810
vt 0.009016 0.995077
vt 0.087659 0.767869
vt 0.007312 0.010451
vt 0.497251 0.992778
vt 0.007312 0.992778
vt 0.013704 0.990974
vt 0.482276 0.360437
vt 0.482276 0.990974
vt 0.221051 0.467535
vt 0.264222 0.359522
vt 0.268440 0.465929
vt 0.486784 0.022069
vt 0.012158 0.639158
vt 0.014286 0.018021
vt 0.009016 0.767869
vt 0.087659 0.515635
vt 0.221051 0.242907
vt 0.268440 0.241301
vt 0.420562 0.515635
vt 0.007971 0.151371
vt 0.007971 0.832229
vt 0.007971 0.993069
vt 0.007971 0.003281
vt -0.002733 0.014591
vt 0.491153 0.994406
vt -0.002733 0.994406
vt 0.007660 0.005026
vt 0.493436 0.996448
vt 0.007660 0.996447
vt 0.013704 0.360437
vt 0.482276 0.000009
vt 0.481972 0.064420
vt 0.007734 0.881890
vt 0.007734 0.064420
vt 0.037938 0.000171
vt 0.493168 0.008645
vt 0.484655 0.643205
vt 0.044811 0.990225
vt 0.463048 0.979349
vt 0.023515 0.994232
vt 0.024239 0.975908
vt 0.005333 0.834412
vt 0.500221 0.996139
vt 0.005333 0.996139
vt 0.005333 0.149801
vt 0.500221 0.834412
vt 0.443373 0.234988
vt 0.043627 0.484886
vt 0.492970 0.515635
vt 0.006301 0.992540
vt 0.457661 0.909327
vt 0.494788 0.992540
vt 0.010077 0.831448
vt 0.492861 0.156034
vt 0.492861 0.831448
vt 0.010077 0.991002
vt 0.492861 0.991002
vt 0.010076 0.156034
vt 0.492861 0.009128
vt 0.466491 0.683652
vt 0.461013 0.518003
vt 0.466491 0.518003
vt 0.266347 0.012163
vt 0.218880 0.005218
vt 0.266268 0.003612
vt 0.420562 0.026520
vt 0.492970 0.008268
vt 0.492970 0.026520
vt 0.087659 0.026520
vt 0.420562 0.008268
vt 0.009016 0.026520
vt 0.087659 0.008268
vt 0.046237 0.542095
vt 0.046237 0.481973
vt 0.003907 0.600379
vt 0.264397 0.542095
vt 0.264397 0.600379
vt 0.225423 0.600379
vt 0.003388 0.975431
vt 0.496751 0.850052
vt 0.496751 0.994693
vt 0.441400 0.730053
vt 0.435483 0.744367
vt 0.435483 0.730008
vt 0.478572 0.008219
vt 0.089227 0.985952
vt 0.096297 0.008207
vt 0.421751 0.730051
vt 0.427668 0.744367
vt 0.421751 0.743837
vt 0.004354 0.990185
vt 0.084512 0.006151
vt 0.084512 0.990183
vt 0.493073 0.165275
vt 0.013319 0.832158
vt 0.493079 0.818743
vt 0.423829 0.006149
vt 0.423829 0.990181
vt 0.497633 0.006149
vt 0.497633 0.990181
vt 0.482384 0.982758
vt 0.097004 0.003415
vt 0.491142 0.003432
vt 0.003388 0.836572
vt 0.496763 0.185049
vt 0.000956 0.802144
vt 0.499223 0.018510
vt 0.000958 0.018510
vt 0.499140 0.814832
vt 0.001764 0.995731
vt 0.499140 0.995731
vt 0.494803 0.166900
vt 0.001740 0.007390
vt 0.494803 0.007390
vt 0.494806 0.842128
vt 0.001740 0.166900
vt 0.494806 0.988993
vt 0.001743 0.842128
vt 0.499142 0.002026
vt 0.001764 0.814832
vt 0.000956 0.976551
vt 0.499222 0.802144
vt 0.493073 0.023143
vt 0.013313 0.151478
vt 0.019789 0.982741
vt 0.104002 0.982741
vt 0.485373 0.020503
vt 0.089866 0.993752
vt 0.097044 0.020503
vt 0.482903 0.985026
vt 0.091496 0.008840
vt 0.491803 0.008828
vt 0.013068 0.985037
vt 0.098599 0.985037
vt 0.493079 0.973113
vt 0.013319 0.992957
vt 0.010617 0.020503
vt -0.000160 0.993752
vt 0.011217 0.008194
vt 0.000604 0.985940
vt 0.003394 0.047340
vt 0.003394 0.198155
vt 0.009016 0.515635
vt 0.218958 0.013769
vt 0.046237 0.600379
vt 0.003907 0.829730
vt 0.225423 0.829730
vt 0.006301 0.339873
vt 0.043428 0.070139
vt 0.043428 0.355870
vt 0.482435 0.488326
vt 0.490715 0.845370
vt 0.003010 0.168886
vt 0.490715 0.168886
vt 0.490715 0.992508
vt 0.003010 0.845370
vt 0.003010 0.009079
vt 0.490715 0.009079
vt 0.466491 0.722784
vt 0.461013 0.683652
vt 0.213401 0.005261
vt 0.005333 0.000895
vt 0.500221 0.149801
vt 0.491305 0.464593
vt 0.485749 0.473100
vt 0.485827 0.464549
vt 0.461013 0.481973
vt 0.466491 0.481973
vt 0.519318 0.032805
vt 0.971832 0.968898
vt 0.519313 0.988799
vt 0.496961 0.004447
vt 0.007673 0.004447
vt 0.496961 0.993432
vt 0.454221 0.090837
vt 0.454221 0.907042
vt 0.503035 0.004454
vt 1.001616 1.003663
vt 0.503035 1.003662
vt 0.987847 0.994729
vt 0.523985 0.043310
vt 0.987847 0.023083
vt 0.987700 0.022134
vt 0.512587 0.975413
vt 0.512587 0.042400
vt 0.987237 0.986954
vt 0.509056 0.030187
vt 0.987225 0.009847
vt 0.503982 0.998425
vt 0.979379 0.962843
vt 0.995433 0.998425
vt 0.995433 0.334288
vt 0.979379 0.342096
vt 0.043428 0.909327
vt 0.494788 0.339873
vt 0.457661 0.070139
vt 0.494788 0.002923
vt 0.006301 0.002923
vt 0.457661 0.355870
vt 0.987504 0.004699
vt 0.499510 0.342212
vt 0.499510 0.004699
vt 0.987504 0.342212
vt 0.499510 0.995970
vt 0.979379 0.021625
vt 0.995433 -0.008583
vt 0.520036 0.021625
vt 0.503982 -0.008583
vt 0.503982 0.334288
vt 0.520036 0.962843
vt 0.520036 0.342096
vt 0.493439 0.003281
vt 0.003419 0.004165
vt 0.011856 0.990968
vt 0.002601 0.356897
vt 0.497251 0.010451
vt 0.216833 0.361128
vt 0.491153 0.014591
vt 0.493436 0.005026
vt 0.013704 0.000009
vt 0.481972 0.944983
vt 0.483453 0.993983
vt 0.462324 0.997672
vt 0.010076 0.009128
vt 0.009016 0.008268
vt 0.003907 0.481973
vt 0.003907 0.542095
vt 0.225423 0.481973
vt 0.225423 0.542095
vt 0.264397 0.481973
vt 0.441400 0.743838
vt 0.487420 0.985965
vt 0.427668 0.730008
vt 0.004354 0.006151
vt 0.001743 0.988993
vt 0.001764 0.002026
vt 0.499222 0.976551
vt 0.013313 0.003427
vt 0.009284 0.003415
vt 0.494366 0.993752
vt 0.002403 0.008840
vt 0.496763 0.027954
vt 0.046237 0.829730
vt 0.264397 0.829730
vt 0.003010 0.992508
vt 0.461013 0.722784
vt 0.213479 0.013812
vt 0.500221 0.000895
vt 0.491227 0.473143
vt 0.971832 0.052705
vt 1.001616 0.004454
vt 0.523990 0.974503
vt 0.987700 0.995679
vt 0.509056 0.966614
vt 0.987504 0.995970
vn 0.0000 -1.0000 0.0000
vn 0.9736 0.2282 0.0000
vn 0.0000 0.0000 -1.0000
vn 0.0000 1.0000 0.0000
vn 0.0000 0.0000 1.0000
vn -1.0000 0.0000 0.0000
vn 1.0000 0.0000 0.0000
vn -0.9976 -0.0695 0.0000
vn 0.0281 -0.9996 0.0000
vn 0.9993 0.0366 0.0000
vn -0.0281 0.9996 0.0000
vn -0.9996 -0.0281 0.0000
vn -0.9996 -0.0282 0.0000
vn -0.9786 0.0000 -0.2057
vn 0.9901 0.1406 0.0000
vn -0.0629 0.9980 0.0000
vn -0.6745 0.0000 0.7383
vn 0.0000 -0.9984 -0.0570
vn -0.6769 0.0000 -0.7361
vn -0.0629 -0.9980 0.0000
vn 0.0000 -0.9984 0.0574
vn 0.0000 0.9984 0.0574
vn 0.0000 0.9984 -0.0570
vn 0.9996 0.0281 0.0000
vn 0.9969 0.0694 0.0382
vn 0.9996 0.0282 0.0000
vn 0.0000 0.5265 -0.8502
vn 0.8052 0.5930 0.0000
vn -0.8052 0.5930 0.0000
vn 0.0000 0.5265 0.8502
vn 0.9356 0.3532 0.0000
vn 0.7887 0.0222 -0.6144
vn 0.9994 0.0281 0.0197
vn 0.9969 0.0694 -0.0382
vn 0.9988 0.0492 0.0000
vn 0.9994 0.0281 -0.0197
vn 0.9976 0.0695 0.0000
vn 0.7792 0.0543 -0.6245
vn 0.9473 -0.3204 0.0000
vn 0.7887 0.0222 0.6144
vn 0.7792 0.0543 0.6245
s off
f 18/1/1 7/2/1 20/3/1
f 19/4/1 2/5/1 17/6/1
f 20/3/1 6/7/1 19/4/1
f 13/8/2 27/9/2 12/10/2
f 23/11/3 29/12/3 16/13/3
f 12/14/4 94/15/4 92/16/4
f 49/17/3 22/18/3 58/19/3
f 51/20/5 21/21/5 57/22/5
f 53/23/6 14/24/6 49/25/6
f 54/26/6 15/27/6 53/23/6
f 50/28/7 12/10/7 55/29/7
f 52/30/6 9/31/6 54/26/6
f 55/32/7 16/33/7 56/34/7
f 56/35/7 11/36/7 51/37/7
f 57/38/5 10/39/5 52/40/5
f 58/41/3 13/42/3 50/43/3
f 10/44/8 33/45/8 9/31/8
f 10/39/5 40/46/5 34/47/5
f 9/31/8 37/48/8 15/27/8
f 8/49/1 19/4/1 5/50/1
f 5/50/1 17/6/1 1/51/1
f 3/52/1 20/3/1 8/49/1
f 27/53/4 30/54/4 32/55/4
f 26/56/4 31/57/4 25/58/4
f 16/59/2 26/60/2 11/36/2
f 24/61/5 27/62/5 32/63/5
f 21/21/5 26/64/5 25/65/5
f 22/66/3 28/67/3 13/42/3
f 78/68/3 43/69/3 76/70/3
f 77/71/9 90/72/9 79/73/9
f 75/74/9 89/75/9 77/71/9
f 14/76/3 35/77/3 22/18/3
f 15/27/8 36/78/8 14/24/8
f 77/79/10 101/80/10 75/81/10
f 46/82/4 45/83/4 41/84/4
f 48/85/4 41/84/4 42/86/4
f 47/87/4 44/88/4 45/83/4
f 46/89/11 86/90/11 47/91/11
f 80/92/5 48/93/5 42/94/5
f 81/95/12 44/96/12 78/97/12
f 82/98/12 45/99/12 81/95/12
f 80/100/13 41/101/13 82/98/13
f 31/102/14 23/103/14 40/104/14
f 30/105/15 35/106/15 39/107/15
f 50/108/16 69/109/16 66/110/16
f 3/111/17 71/112/17 64/113/17
f 2/114/18 59/115/18 17/116/18
f 1/117/19 67/118/19 52/119/19
f 1/120/6 54/121/6 5/122/6
f 7/123/20 65/124/20 6/125/20
f 5/122/6 53/126/6 8/127/6
f 8/127/6 49/128/6 3/129/6
f 4/130/21 63/131/21 62/132/21
f 55/133/16 70/134/16 69/109/16
f 63/135/3 66/136/3 62/137/3
f 59/138/5 67/139/5 68/140/5
f 65/141/7 72/142/7 60/143/7
f 61/144/7 70/145/7 65/141/7
f 62/146/7 69/147/7 61/144/7
f 60/148/5 73/149/5 59/138/5
f 64/150/3 74/151/3 63/135/3
f 4/152/20 61/153/20 7/123/20
f 3/154/21 63/131/21 18/155/21
f 50/156/22 74/157/22 58/158/22
f 51/159/23 73/160/23 72/161/23
f 52/162/23 73/160/23 57/163/23
f 2/164/20 65/124/20 60/165/20
f 49/166/22 74/157/22 71/167/22
f 1/168/18 59/115/18 68/169/18
f 51/170/16 70/134/16 56/171/16
f 34/172/12 82/98/12 33/45/12
f 33/45/12 81/95/12 37/48/12
f 37/48/12 78/97/12 36/78/12
f 34/47/5 79/173/5 80/92/5
f 38/174/24 79/175/24 40/104/24
f 35/106/24 75/176/24 39/107/24
f 38/177/25 99/178/25 103/179/25
f 36/180/3 76/70/3 35/77/3
f 88/181/24 85/182/24 89/183/24
f 83/184/26 86/185/26 88/181/26
f 89/183/24 87/186/24 90/187/24
f 48/188/11 85/189/11 46/89/11
f 79/173/5 87/190/5 48/93/5
f 76/191/9 88/192/9 75/74/9
f 76/193/3 84/194/3 83/195/3
f 47/91/11 84/196/11 43/197/11
f 94/198/27 96/199/27 92/200/27
f 23/201/4 94/15/4 24/202/4
f 16/203/4 93/204/4 23/201/4
f 12/14/4 91/205/4 16/203/4
f 95/206/4 98/207/4 97/208/4
f 92/209/28 95/210/28 91/211/28
f 94/212/29 97/213/29 98/214/29
f 91/215/30 97/216/30 93/217/30
f 104/218/31 107/219/31 101/220/31
f 102/221/32 107/219/32 108/222/32
f 38/177/33 104/223/33 77/79/33
f 39/224/34 100/225/34 24/226/34
f 23/227/35 100/225/35 99/178/35
f 39/224/36 101/80/36 102/228/36
f 106/229/37 109/230/37 105/231/37
f 108/232/24 110/233/24 109/230/24
f 102/221/38 106/234/38 100/235/38
f 100/235/39 105/236/39 99/237/39
f 103/238/40 110/239/40 104/218/40
f 103/238/41 105/236/41 109/240/41
f 18/1/1 4/241/1 7/2/1
f 19/4/1 6/7/1 2/5/1
f 20/3/1 7/2/1 6/7/1
f 13/8/2 28/242/2 27/9/2
f 23/11/3 31/243/3 29/12/3
f 12/14/4 24/202/4 94/15/4
f 49/17/3 14/76/3 22/18/3
f 51/20/5 11/244/5 21/21/5
f 53/23/6 15/27/6 14/24/6
f 54/26/6 9/31/6 15/27/6
f 50/28/7 13/8/7 12/10/7
f 52/30/6 10/44/6 9/31/6
f 55/32/7 12/245/7 16/33/7
f 56/35/7 16/59/7 11/36/7
f 57/38/5 21/246/5 10/39/5
f 58/41/3 22/66/3 13/42/3
f 10/44/8 34/172/8 33/45/8
f 10/39/5 21/246/5 40/46/5
f 9/31/8 33/45/8 37/48/8
f 8/49/1 20/3/1 19/4/1
f 5/50/1 19/4/1 17/6/1
f 3/52/1 18/1/1 20/3/1
f 27/53/4 28/247/4 30/54/4
f 26/56/4 29/248/4 31/57/4
f 16/59/2 29/249/2 26/60/2
f 24/61/5 12/250/5 27/62/5
f 21/21/5 11/244/5 26/64/5
f 22/66/3 30/251/3 28/67/3
f 78/68/3 44/252/3 43/69/3
f 77/71/9 89/75/9 90/72/9
f 75/74/9 88/192/9 89/75/9
f 14/76/3 36/180/3 35/77/3
f 15/27/8 37/48/8 36/78/8
f 77/79/10 104/223/10 101/80/10
f 46/82/4 47/87/4 45/83/4
f 48/85/4 46/82/4 41/84/4
f 47/87/4 43/253/4 44/88/4
f 46/89/11 85/189/11 86/90/11
f 80/92/5 79/173/5 48/93/5
f 81/95/12 45/99/12 44/96/12
f 82/98/13 41/101/13 45/99/13
f 80/100/12 42/254/12 41/101/12
f 40/104/5 21/255/5 25/256/5
f 40/104/15 25/256/15 31/102/15
f 23/103/37 38/174/37 40/104/37
f 39/107/5 24/257/5 32/258/5
f 30/105/3 22/259/3 35/106/3
f 39/107/15 32/258/15 30/105/15
f 50/108/16 55/133/16 69/109/16
f 3/111/17 49/260/17 71/112/17
f 2/114/18 60/261/18 59/115/18
f 1/117/19 68/262/19 67/118/19
f 1/120/6 52/263/6 54/121/6
f 7/123/20 61/153/20 65/124/20
f 5/122/6 54/121/6 53/126/6
f 8/127/6 53/126/6 49/128/6
f 4/130/21 18/155/21 63/131/21
f 55/133/16 56/171/16 70/134/16
f 63/135/3 74/151/3 66/136/3
f 59/138/5 73/149/5 67/139/5
f 65/141/7 70/145/7 72/142/7
f 61/144/7 69/147/7 70/145/7
f 62/146/7 66/264/7 69/147/7
f 60/148/5 72/265/5 73/149/5
f 64/150/3 71/266/3 74/151/3
f 4/152/20 62/267/20 61/153/20
f 3/154/21 64/268/21 63/131/21
f 50/156/22 66/269/22 74/157/22
f 51/159/23 57/163/23 73/160/23
f 52/162/23 67/270/23 73/160/23
f 2/164/20 6/125/20 65/124/20
f 49/166/22 58/158/22 74/157/22
f 1/168/18 17/116/18 59/115/18
f 51/170/16 72/271/16 70/134/16
f 34/172/12 80/100/12 82/98/12
f 33/45/12 82/98/12 81/95/12
f 37/48/12 81/95/12 78/97/12
f 34/47/5 40/46/5 79/173/5
f 38/174/24 77/272/24 79/175/24
f 35/106/24 76/273/24 75/176/24
f 38/177/25 23/227/25 99/178/25
f 36/180/3 78/68/3 76/70/3
f 88/181/24 86/185/24 85/182/24
f 83/184/26 84/274/26 86/185/26
f 89/183/24 85/182/24 87/186/24
f 48/188/11 87/275/11 85/189/11
f 79/173/5 90/276/5 87/190/5
f 76/191/9 83/277/9 88/192/9
f 76/193/3 43/278/3 84/194/3
f 47/91/11 86/90/11 84/196/11
f 94/198/27 98/279/27 96/199/27
f 23/201/4 93/204/4 94/15/4
f 16/203/4 91/205/4 93/204/4
f 12/14/4 92/16/4 91/205/4
f 95/206/4 96/280/4 98/207/4
f 92/209/28 96/281/28 95/210/28
f 94/212/29 93/282/29 97/213/29
f 91/215/30 95/283/30 97/216/30
f 104/218/31 110/239/31 107/219/31
f 102/221/32 101/220/32 107/219/32
f 38/177/33 103/179/33 104/223/33
f 39/224/34 102/228/34 100/225/34
f 23/227/35 24/226/35 100/225/35
f 39/224/36 75/81/36 101/80/36
f 106/229/37 108/232/37 109/230/37
f 108/232/24 107/284/24 110/233/24
f 102/221/38 108/222/38 106/234/38
f 100/235/39 106/234/39 105/236/39
f 103/238/40 109/240/40 110/239/40
f 103/238/41 99/237/41 105/236/41
